<?xml version="1.0" encoding="iso-8859-1"?>
<!-- Generator: Adobe Illustrator 19.0.0, SVG Export Plug-In . SVG Version: 6.00 Build 0)  -->
<svg version="1.1" id="Capa_1" xmlns="http://www.w3.org/2000/svg" xmlns:xlink="http://www.w3.org/1999/xlink" x="0px" y="0px"
	 viewBox="0 0 512 512" style="enable-background:new 0 0 512 512;" xml:space="preserve">
<path style="fill:#eee;" d="M347.861,363.496c-58.136,27.581-125.587,27.581-183.723,0c-5.432-2.286-11.688,0.264-13.973,5.696
	c-2.286,5.432,0.264,11.688,5.696,13.973C187.402,397.24,221.466,404.78,256,405.331c34.533-0.558,68.596-8.098,100.139-22.165
	c5.432-2.286,7.982-8.542,5.696-13.973S353.293,361.211,347.861,363.496z"/>
<g>
	<circle style="fill:#ddd;" cx="181.333" cy="287.998" r="32"/>
	<circle style="fill:#ddd;" cx="330.667" cy="287.998" r="32"/>
</g>
<path style="fill:#ddd;" d="M512,245.331c0-29.397-31.104-53.333-69.333-53.333c-16.193-0.081-32.042,4.665-45.525,13.632
	c-39.998-21.899-84.711-33.773-130.304-34.603c-2.101-20.289,4.981-40.455,19.307-54.976c14.933-11.008,41.024-11.051,76.8-1.024
	c0,0.789-0.235,1.515-0.235,2.304c-0.344,29.795,23.53,54.227,53.325,54.572c29.795,0.344,54.228-23.53,54.572-53.325
	s-23.53-54.227-53.325-54.572c-20.794-0.24-39.876,11.492-49.046,30.157c-42.859-11.989-74.005-10.56-94.72,4.715
	c-20.107,18.334-30.459,45.032-27.968,72.128c-45.725,0.779-90.575,12.661-130.688,34.624
	c-13.483-8.967-29.333-13.713-45.525-13.632C31.104,191.998,0,215.934,0,245.331c1.931,24.445,19.813,44.659,43.84,49.557
	c-0.773,4.776-1.166,9.605-1.173,14.443c0,76.459,95.701,138.667,213.333,138.667s213.333-62.208,213.333-138.667
	c-0.009-4.831-0.401-9.653-1.173-14.421C492.194,290.009,510.078,269.784,512,245.331z M416,85.331c17.673,0,32,14.327,32,32
	s-14.327,32-32,32s-32-14.327-32-32S398.327,85.331,416,85.331z M49.621,274.387c-16.811-5.163-28.288-16.576-28.288-29.056
	c0-17.344,21.973-32,48-32c8.69-0.05,17.298,1.67,25.301,5.056c-12.586,9.33-23.573,20.642-32.533,33.493
	c-1.152,1.621-2.347,3.221-3.392,4.885c-1.28,2.133-2.432,4.267-3.563,6.4c-1.664,3.051-3.2,6.144-4.544,9.301
	C50.304,273.064,49.877,273.704,49.621,274.387z M256,426.664c-105.856,0-192-52.629-192-117.333
	c0.074-6.584,1.035-13.129,2.859-19.456l0,0c9.122-26.782,27.965-49.165,52.8-62.72c0.32-0.192,0.491-0.555,0.789-0.789
	c41.28-23.415,88.102-35.286,135.552-34.368c47.429-0.93,94.235,10.919,135.509,34.304c0.299,0.235,0.469,0.597,0.789,0.789
	c24.827,13.565,43.667,35.944,52.8,62.72l0,0c1.843,6.346,2.819,12.912,2.901,19.52C448,374.035,361.856,426.664,256,426.664z
	 M462.4,274.387c-0.277-0.725-0.725-1.408-1.045-2.133c-1.323-3.072-2.795-6.08-4.416-9.067c-1.173-2.133-2.347-4.373-3.669-6.528
	c-0.981-1.557-2.133-3.072-3.2-4.608c-8.986-12.934-20.026-24.312-32.683-33.685c7.998-3.375,16.599-5.088,25.28-5.035
	c26.027,0,48,14.656,48,32C490.667,257.811,479.189,269.224,462.4,274.387L462.4,274.387z"/>
<g>
</g>
<g>
</g>
<g>
</g>
<g>
</g>
<g>
</g>
<g>
</g>
<g>
</g>
<g>
</g>
<g>
</g>
<g>
</g>
<g>
</g>
<g>
</g>
<g>
</g>
<g>
</g>
<g>
</g>
</svg>
